<mxfile host="app.diagrams.net" modified="2022-09-23T14:32:25.371Z" agent="5.0 (X11)" etag="7kE6yZIQk9wy52IrbsFU" version="20.3.6" type="github">
  <diagram id="ckV3bJ9xiveXu8OoJ0Qx" name="Page-1">
    <mxGraphModel dx="1422" dy="904" grid="1" gridSize="10" guides="1" tooltips="1" connect="1" arrows="1" fold="1" page="1" pageScale="1" pageWidth="827" pageHeight="1169" math="0" shadow="0">
      <root>
        <mxCell id="0" />
        <mxCell id="1" parent="0" />
        <mxCell id="lxOpeqHXsU5rOAwTQZLW-1" value="Cliente" style="rounded=0;whiteSpace=wrap;html=1;" vertex="1" parent="1">
          <mxGeometry x="100" y="130" width="120" height="60" as="geometry" />
        </mxCell>
        <mxCell id="lxOpeqHXsU5rOAwTQZLW-2" value="Estoque" style="rounded=0;whiteSpace=wrap;html=1;" vertex="1" parent="1">
          <mxGeometry x="707" y="240" width="120" height="60" as="geometry" />
        </mxCell>
        <mxCell id="lxOpeqHXsU5rOAwTQZLW-21" style="edgeStyle=orthogonalEdgeStyle;rounded=0;orthogonalLoop=1;jettySize=auto;html=1;entryX=0.5;entryY=0;entryDx=0;entryDy=0;" edge="1" parent="1" target="lxOpeqHXsU5rOAwTQZLW-19">
          <mxGeometry relative="1" as="geometry">
            <mxPoint x="250" y="230" as="sourcePoint" />
          </mxGeometry>
        </mxCell>
        <mxCell id="lxOpeqHXsU5rOAwTQZLW-34" style="edgeStyle=orthogonalEdgeStyle;rounded=0;orthogonalLoop=1;jettySize=auto;html=1;entryX=0.5;entryY=0;entryDx=0;entryDy=0;" edge="1" parent="1" target="lxOpeqHXsU5rOAwTQZLW-18">
          <mxGeometry relative="1" as="geometry">
            <mxPoint x="310" y="260" as="sourcePoint" />
          </mxGeometry>
        </mxCell>
        <mxCell id="lxOpeqHXsU5rOAwTQZLW-26" style="edgeStyle=orthogonalEdgeStyle;rounded=0;orthogonalLoop=1;jettySize=auto;html=1;entryX=0.513;entryY=0.1;entryDx=0;entryDy=0;entryPerimeter=0;startArrow=none;" edge="1" parent="1" source="lxOpeqHXsU5rOAwTQZLW-52" target="lxOpeqHXsU5rOAwTQZLW-25">
          <mxGeometry relative="1" as="geometry" />
        </mxCell>
        <mxCell id="lxOpeqHXsU5rOAwTQZLW-4" value="Produto" style="rounded=0;whiteSpace=wrap;html=1;" vertex="1" parent="1">
          <mxGeometry x="350" y="290" width="120" height="60" as="geometry" />
        </mxCell>
        <mxCell id="lxOpeqHXsU5rOAwTQZLW-5" value="Fornecedores" style="rounded=0;whiteSpace=wrap;html=1;" vertex="1" parent="1">
          <mxGeometry x="510" y="110" width="120" height="60" as="geometry" />
        </mxCell>
        <mxCell id="lxOpeqHXsU5rOAwTQZLW-7" value="" style="edgeStyle=entityRelationEdgeStyle;fontSize=12;html=1;endArrow=ERoneToMany;startArrow=ERmandOne;rounded=0;entryX=0.5;entryY=1;entryDx=0;entryDy=0;exitX=0;exitY=0.5;exitDx=0;exitDy=0;" edge="1" parent="1" target="lxOpeqHXsU5rOAwTQZLW-1">
          <mxGeometry width="100" height="100" relative="1" as="geometry">
            <mxPoint x="250" y="230" as="sourcePoint" />
            <mxPoint x="230" y="240" as="targetPoint" />
          </mxGeometry>
        </mxCell>
        <mxCell id="lxOpeqHXsU5rOAwTQZLW-28" value="n:m" style="edgeLabel;html=1;align=center;verticalAlign=middle;resizable=0;points=[];" vertex="1" connectable="0" parent="lxOpeqHXsU5rOAwTQZLW-7">
          <mxGeometry x="0.5727" y="-4" relative="1" as="geometry">
            <mxPoint as="offset" />
          </mxGeometry>
        </mxCell>
        <mxCell id="lxOpeqHXsU5rOAwTQZLW-10" value="" style="edgeStyle=entityRelationEdgeStyle;fontSize=12;html=1;endArrow=ERoneToMany;startArrow=ERoneToMany;rounded=0;entryX=0.75;entryY=1;entryDx=0;entryDy=0;" edge="1" parent="1" source="lxOpeqHXsU5rOAwTQZLW-4">
          <mxGeometry width="100" height="100" relative="1" as="geometry">
            <mxPoint x="360" y="510" as="sourcePoint" />
            <mxPoint x="340" y="260" as="targetPoint" />
          </mxGeometry>
        </mxCell>
        <mxCell id="lxOpeqHXsU5rOAwTQZLW-29" value="n;m" style="edgeLabel;html=1;align=center;verticalAlign=middle;resizable=0;points=[];" vertex="1" connectable="0" parent="lxOpeqHXsU5rOAwTQZLW-10">
          <mxGeometry x="0.08" y="1" relative="1" as="geometry">
            <mxPoint as="offset" />
          </mxGeometry>
        </mxCell>
        <mxCell id="lxOpeqHXsU5rOAwTQZLW-11" value="" style="edgeStyle=entityRelationEdgeStyle;fontSize=12;html=1;endArrow=ERoneToMany;startArrow=ERoneToMany;rounded=0;exitX=0.5;exitY=0;exitDx=0;exitDy=0;entryX=0;entryY=0.5;entryDx=0;entryDy=0;" edge="1" parent="1" source="lxOpeqHXsU5rOAwTQZLW-4" target="lxOpeqHXsU5rOAwTQZLW-5">
          <mxGeometry width="100" height="100" relative="1" as="geometry">
            <mxPoint x="360" y="510" as="sourcePoint" />
            <mxPoint x="600" y="190" as="targetPoint" />
          </mxGeometry>
        </mxCell>
        <mxCell id="lxOpeqHXsU5rOAwTQZLW-32" value="n;m" style="edgeLabel;html=1;align=center;verticalAlign=middle;resizable=0;points=[];" vertex="1" connectable="0" parent="lxOpeqHXsU5rOAwTQZLW-11">
          <mxGeometry x="0.3368" y="2" relative="1" as="geometry">
            <mxPoint as="offset" />
          </mxGeometry>
        </mxCell>
        <mxCell id="lxOpeqHXsU5rOAwTQZLW-14" value="" style="edgeStyle=entityRelationEdgeStyle;fontSize=12;html=1;endArrow=ERoneToMany;startArrow=ERoneToMany;rounded=0;entryX=0;entryY=0.5;entryDx=0;entryDy=0;exitX=1;exitY=0.5;exitDx=0;exitDy=0;" edge="1" parent="1" source="lxOpeqHXsU5rOAwTQZLW-4" target="lxOpeqHXsU5rOAwTQZLW-2">
          <mxGeometry width="100" height="100" relative="1" as="geometry">
            <mxPoint x="360" y="510" as="sourcePoint" />
            <mxPoint x="460" y="410" as="targetPoint" />
          </mxGeometry>
        </mxCell>
        <mxCell id="lxOpeqHXsU5rOAwTQZLW-30" value="n;m" style="edgeLabel;html=1;align=center;verticalAlign=middle;resizable=0;points=[];" vertex="1" connectable="0" parent="lxOpeqHXsU5rOAwTQZLW-14">
          <mxGeometry x="-0.1667" y="4" relative="1" as="geometry">
            <mxPoint as="offset" />
          </mxGeometry>
        </mxCell>
        <mxCell id="lxOpeqHXsU5rOAwTQZLW-15" value="" style="edgeStyle=entityRelationEdgeStyle;fontSize=12;html=1;endArrow=ERoneToMany;startArrow=ERoneToMany;rounded=0;exitX=0.25;exitY=0;exitDx=0;exitDy=0;entryX=0.858;entryY=1.033;entryDx=0;entryDy=0;entryPerimeter=0;" edge="1" parent="1" source="lxOpeqHXsU5rOAwTQZLW-2" target="lxOpeqHXsU5rOAwTQZLW-5">
          <mxGeometry width="100" height="100" relative="1" as="geometry">
            <mxPoint x="640" y="250" as="sourcePoint" />
            <mxPoint x="740" y="150" as="targetPoint" />
          </mxGeometry>
        </mxCell>
        <mxCell id="lxOpeqHXsU5rOAwTQZLW-33" value="n;m" style="edgeLabel;html=1;align=center;verticalAlign=middle;resizable=0;points=[];" vertex="1" connectable="0" parent="lxOpeqHXsU5rOAwTQZLW-15">
          <mxGeometry x="0.4657" y="3" relative="1" as="geometry">
            <mxPoint as="offset" />
          </mxGeometry>
        </mxCell>
        <mxCell id="lxOpeqHXsU5rOAwTQZLW-18" value="Aceito" style="ellipse;whiteSpace=wrap;html=1;align=center;" vertex="1" parent="1">
          <mxGeometry x="67.5" y="260" width="100" height="40" as="geometry" />
        </mxCell>
        <mxCell id="lxOpeqHXsU5rOAwTQZLW-19" value="Cancelado" style="ellipse;whiteSpace=wrap;html=1;align=center;" vertex="1" parent="1">
          <mxGeometry y="290" width="100" height="40" as="geometry" />
        </mxCell>
        <mxCell id="lxOpeqHXsU5rOAwTQZLW-36" style="edgeStyle=orthogonalEdgeStyle;rounded=0;orthogonalLoop=1;jettySize=auto;html=1;entryX=0.5;entryY=0;entryDx=0;entryDy=0;exitX=0.5;exitY=1;exitDx=0;exitDy=0;exitPerimeter=0;" edge="1" parent="1" source="lxOpeqHXsU5rOAwTQZLW-25" target="lxOpeqHXsU5rOAwTQZLW-35">
          <mxGeometry relative="1" as="geometry">
            <Array as="points">
              <mxPoint x="498" y="660" />
              <mxPoint x="498" y="700" />
            </Array>
          </mxGeometry>
        </mxCell>
        <mxCell id="lxOpeqHXsU5rOAwTQZLW-37" value="n;m" style="edgeLabel;html=1;align=center;verticalAlign=middle;resizable=0;points=[];" vertex="1" connectable="0" parent="lxOpeqHXsU5rOAwTQZLW-36">
          <mxGeometry x="0.0811" y="6" relative="1" as="geometry">
            <mxPoint x="-1" y="-3" as="offset" />
          </mxGeometry>
        </mxCell>
        <mxCell id="lxOpeqHXsU5rOAwTQZLW-25" value="Venda" style="strokeWidth=2;html=1;shape=mxgraph.flowchart.decision;whiteSpace=wrap;direction=south;" vertex="1" parent="1">
          <mxGeometry x="398" y="434" width="100" height="156" as="geometry" />
        </mxCell>
        <mxCell id="lxOpeqHXsU5rOAwTQZLW-42" style="edgeStyle=orthogonalEdgeStyle;rounded=0;orthogonalLoop=1;jettySize=auto;html=1;entryX=0.5;entryY=0;entryDx=0;entryDy=0;" edge="1" parent="1" source="lxOpeqHXsU5rOAwTQZLW-35" target="lxOpeqHXsU5rOAwTQZLW-41">
          <mxGeometry relative="1" as="geometry" />
        </mxCell>
        <mxCell id="lxOpeqHXsU5rOAwTQZLW-35" value="CÃ³digo" style="shape=ext;margin=3;double=1;whiteSpace=wrap;html=1;align=center;" vertex="1" parent="1">
          <mxGeometry x="440" y="700" width="100" height="40" as="geometry" />
        </mxCell>
        <mxCell id="lxOpeqHXsU5rOAwTQZLW-38" value="Pedido" style="shape=ext;margin=3;double=1;whiteSpace=wrap;html=1;align=center;" vertex="1" parent="1">
          <mxGeometry x="240" y="200" width="150" height="70" as="geometry" />
        </mxCell>
        <mxCell id="lxOpeqHXsU5rOAwTQZLW-41" value="Entregue" style="whiteSpace=wrap;html=1;align=center;" vertex="1" parent="1">
          <mxGeometry x="428" y="850" width="120" height="60" as="geometry" />
        </mxCell>
        <mxCell id="lxOpeqHXsU5rOAwTQZLW-48" style="edgeStyle=orthogonalEdgeStyle;rounded=0;orthogonalLoop=1;jettySize=auto;html=1;" edge="1" parent="1" source="lxOpeqHXsU5rOAwTQZLW-43">
          <mxGeometry relative="1" as="geometry">
            <mxPoint x="80" y="90" as="targetPoint" />
          </mxGeometry>
        </mxCell>
        <mxCell id="lxOpeqHXsU5rOAwTQZLW-43" value="Pj" style="ellipse;whiteSpace=wrap;html=1;align=center;" vertex="1" parent="1">
          <mxGeometry x="30" y="20" width="100" height="40" as="geometry" />
        </mxCell>
        <mxCell id="lxOpeqHXsU5rOAwTQZLW-46" style="edgeStyle=orthogonalEdgeStyle;rounded=0;orthogonalLoop=1;jettySize=auto;html=1;" edge="1" parent="1" source="lxOpeqHXsU5rOAwTQZLW-44">
          <mxGeometry relative="1" as="geometry">
            <mxPoint x="240" y="100" as="targetPoint" />
          </mxGeometry>
        </mxCell>
        <mxCell id="lxOpeqHXsU5rOAwTQZLW-44" value="Pf" style="ellipse;whiteSpace=wrap;html=1;align=center;" vertex="1" parent="1">
          <mxGeometry x="190" y="20" width="100" height="40" as="geometry" />
        </mxCell>
        <mxCell id="lxOpeqHXsU5rOAwTQZLW-45" value="" style="endArrow=none;html=1;rounded=0;exitX=0.5;exitY=0;exitDx=0;exitDy=0;startArrow=none;" edge="1" parent="1" source="lxOpeqHXsU5rOAwTQZLW-49">
          <mxGeometry relative="1" as="geometry">
            <mxPoint x="330" y="300" as="sourcePoint" />
            <mxPoint x="240" y="100" as="targetPoint" />
            <Array as="points">
              <mxPoint x="160" y="80" />
            </Array>
          </mxGeometry>
        </mxCell>
        <mxCell id="lxOpeqHXsU5rOAwTQZLW-47" value="" style="endArrow=none;html=1;rounded=0;" edge="1" parent="1">
          <mxGeometry relative="1" as="geometry">
            <mxPoint x="80" y="90" as="sourcePoint" />
            <mxPoint x="160" y="80" as="targetPoint" />
          </mxGeometry>
        </mxCell>
        <mxCell id="lxOpeqHXsU5rOAwTQZLW-49" value="" style="triangle;whiteSpace=wrap;html=1;rotation=-90;" vertex="1" parent="1">
          <mxGeometry x="152.5" y="80" width="15" height="30" as="geometry" />
        </mxCell>
        <mxCell id="lxOpeqHXsU5rOAwTQZLW-50" value="" style="endArrow=none;html=1;rounded=0;exitX=0.5;exitY=0;exitDx=0;exitDy=0;" edge="1" parent="1" source="lxOpeqHXsU5rOAwTQZLW-1" target="lxOpeqHXsU5rOAwTQZLW-49">
          <mxGeometry relative="1" as="geometry">
            <mxPoint x="160" y="130" as="sourcePoint" />
            <mxPoint x="240" y="100" as="targetPoint" />
            <Array as="points" />
          </mxGeometry>
        </mxCell>
        <mxCell id="lxOpeqHXsU5rOAwTQZLW-52" value="Pagamento" style="whiteSpace=wrap;html=1;align=center;" vertex="1" parent="1">
          <mxGeometry x="438" y="380" width="100" height="40" as="geometry" />
        </mxCell>
        <mxCell id="lxOpeqHXsU5rOAwTQZLW-53" value="" style="edgeStyle=orthogonalEdgeStyle;rounded=0;orthogonalLoop=1;jettySize=auto;html=1;entryX=0.513;entryY=0.1;entryDx=0;entryDy=0;entryPerimeter=0;endArrow=none;" edge="1" parent="1" source="lxOpeqHXsU5rOAwTQZLW-4" target="lxOpeqHXsU5rOAwTQZLW-52">
          <mxGeometry relative="1" as="geometry">
            <mxPoint x="410" y="350" as="sourcePoint" />
            <mxPoint x="472.028" y="460" as="targetPoint" />
          </mxGeometry>
        </mxCell>
        <mxCell id="lxOpeqHXsU5rOAwTQZLW-54" value="1;n" style="edgeLabel;html=1;align=center;verticalAlign=middle;resizable=0;points=[];" vertex="1" connectable="0" parent="lxOpeqHXsU5rOAwTQZLW-53">
          <mxGeometry x="-0.3111" y="2" relative="1" as="geometry">
            <mxPoint as="offset" />
          </mxGeometry>
        </mxCell>
        <mxCell id="lxOpeqHXsU5rOAwTQZLW-60" style="edgeStyle=orthogonalEdgeStyle;rounded=0;orthogonalLoop=1;jettySize=auto;html=1;exitX=0.5;exitY=0;exitDx=0;exitDy=0;" edge="1" parent="1" source="lxOpeqHXsU5rOAwTQZLW-55">
          <mxGeometry relative="1" as="geometry">
            <mxPoint x="610" y="390" as="targetPoint" />
          </mxGeometry>
        </mxCell>
        <mxCell id="lxOpeqHXsU5rOAwTQZLW-55" value="Dinheiro" style="ellipse;whiteSpace=wrap;html=1;align=center;" vertex="1" parent="1">
          <mxGeometry x="607" y="410" width="100" height="40" as="geometry" />
        </mxCell>
        <mxCell id="lxOpeqHXsU5rOAwTQZLW-59" style="edgeStyle=orthogonalEdgeStyle;rounded=0;orthogonalLoop=1;jettySize=auto;html=1;" edge="1" parent="1" source="lxOpeqHXsU5rOAwTQZLW-56">
          <mxGeometry relative="1" as="geometry">
            <mxPoint x="610" y="390" as="targetPoint" />
          </mxGeometry>
        </mxCell>
        <mxCell id="lxOpeqHXsU5rOAwTQZLW-56" value="CartÃ£o" style="ellipse;whiteSpace=wrap;html=1;align=center;" vertex="1" parent="1">
          <mxGeometry x="607" y="330" width="100" height="40" as="geometry" />
        </mxCell>
        <mxCell id="lxOpeqHXsU5rOAwTQZLW-57" value="" style="endArrow=none;html=1;rounded=0;exitX=1;exitY=0.5;exitDx=0;exitDy=0;" edge="1" parent="1" source="lxOpeqHXsU5rOAwTQZLW-52" target="lxOpeqHXsU5rOAwTQZLW-58">
          <mxGeometry relative="1" as="geometry">
            <mxPoint x="330" y="510" as="sourcePoint" />
            <mxPoint x="590" y="400" as="targetPoint" />
          </mxGeometry>
        </mxCell>
        <mxCell id="lxOpeqHXsU5rOAwTQZLW-58" value="" style="strokeWidth=2;html=1;shape=mxgraph.flowchart.extract_or_measurement;whiteSpace=wrap;rotation=-90;" vertex="1" parent="1">
          <mxGeometry x="579" y="380" width="21" height="20" as="geometry" />
        </mxCell>
        <mxCell id="lxOpeqHXsU5rOAwTQZLW-62" value="Enviar" style="shape=ext;margin=3;double=1;whiteSpace=wrap;html=1;align=center;" vertex="1" parent="1">
          <mxGeometry x="350" y="580" width="100" height="40" as="geometry" />
        </mxCell>
        <mxCell id="lxOpeqHXsU5rOAwTQZLW-63" value="E.Cliente" style="ellipse;whiteSpace=wrap;html=1;align=center;fontStyle=4;" vertex="1" parent="1">
          <mxGeometry x="640" y="705" width="100" height="35" as="geometry" />
        </mxCell>
        <mxCell id="lxOpeqHXsU5rOAwTQZLW-64" value="" style="endArrow=none;html=1;rounded=0;exitX=1;exitY=0.5;exitDx=0;exitDy=0;entryX=0;entryY=0.5;entryDx=0;entryDy=0;" edge="1" parent="1" source="lxOpeqHXsU5rOAwTQZLW-35" target="lxOpeqHXsU5rOAwTQZLW-63">
          <mxGeometry relative="1" as="geometry">
            <mxPoint x="330" y="510" as="sourcePoint" />
            <mxPoint x="490" y="510" as="targetPoint" />
          </mxGeometry>
        </mxCell>
      </root>
    </mxGraphModel>
  </diagram>
</mxfile>
